<svg width="651" height="394" xmlns="http://www.w3.org/2000/svg" xmlns:xlink="http://www.w3.org/1999/xlink" xml:space="preserve" overflow="hidden"><defs><filter id="fx0" x="-10%" y="-10%" width="120%" height="120%" filterUnits="userSpaceOnUse" primitiveUnits="userSpaceOnUse"><feComponentTransfer color-interpolation-filters="sRGB"><feFuncR type="discrete" tableValues="0.000000 0.000000"/><feFuncG type="discrete" tableValues="0.000000 0.000000"/><feFuncB type="discrete" tableValues="0.000000 0.000000"/><feFuncA type="linear" slope="0.400000" intercept="0.000000"/></feComponentTransfer><feGaussianBlur stdDeviation="6.111111 6.111111"/></filter><filter id="fx1" x="-10%" y="-10%" width="120%" height="120%" filterUnits="userSpaceOnUse" primitiveUnits="userSpaceOnUse"><feComponentTransfer color-interpolation-filters="sRGB"><feFuncR type="discrete" tableValues="0.000000 0.000000"/><feFuncG type="discrete" tableValues="0.000000 0.000000"/><feFuncB type="discrete" tableValues="0.000000 0.000000"/><feFuncA type="linear" slope="0.400000" intercept="0.000000"/></feComponentTransfer><feGaussianBlur stdDeviation="6.111111 6.111111"/></filter><filter id="fx2" x="-10%" y="-10%" width="120%" height="120%" filterUnits="userSpaceOnUse" primitiveUnits="userSpaceOnUse"><feComponentTransfer color-interpolation-filters="sRGB"><feFuncR type="discrete" tableValues="0.000000 0.000000"/><feFuncG type="discrete" tableValues="0.000000 0.000000"/><feFuncB type="discrete" tableValues="0.000000 0.000000"/><feFuncA type="linear" slope="0.400000" intercept="0.000000"/></feComponentTransfer><feGaussianBlur stdDeviation="6.111111 6.111111"/></filter><filter id="fx3" x="-10%" y="-10%" width="120%" height="120%" filterUnits="userSpaceOnUse" primitiveUnits="userSpaceOnUse"><feComponentTransfer color-interpolation-filters="sRGB"><feFuncR type="discrete" tableValues="0.000000 0.000000"/><feFuncG type="discrete" tableValues="0.000000 0.000000"/><feFuncB type="discrete" tableValues="0.000000 0.000000"/><feFuncA type="linear" slope="0.400000" intercept="0.000000"/></feComponentTransfer><feGaussianBlur stdDeviation="6.111111 6.111111"/></filter><clipPath id="clip4"><path d="M2108.5 981.5 2108.5 1016.5 2137.5 1016.5 2137.5 981.5ZM1801 898 2452 898 2452 1292 1801 1292Z" fill-rule="evenodd" clip-rule="evenodd"/></clipPath><clipPath id="clip5"><rect x="1.3894" y="1.38928" width="66.6665" height="72.6667"/></clipPath><clipPath id="clip6"><path d="M2042.5 1184.5 2042.5 1219.5 2070.5 1219.5 2070.5 1184.5ZM1801 898 2452 898 2452 1292 1801 1292Z" fill-rule="evenodd" clip-rule="evenodd"/></clipPath><clipPath id="clip7"><rect x="1.3894" y="1.3894" width="65.6665" height="72.6667"/></clipPath><clipPath id="clip8"><path d="M2104.5 1184.5 2104.5 1219.5 2133.5 1219.5 2133.5 1184.5ZM1801 898 2452 898 2452 1292 1801 1292Z" fill-rule="evenodd" clip-rule="evenodd"/></clipPath><clipPath id="clip9"><rect x="1.3894" y="1.3894" width="66.6667" height="72.6667"/></clipPath><clipPath id="clip10"><path d="M2167.5 1183.5 2167.5 1218.5 2195.5 1218.5 2195.5 1183.5ZM1801 898 2452 898 2452 1292 1801 1292Z" fill-rule="evenodd" clip-rule="evenodd"/></clipPath><clipPath id="clip11"><rect x="1.38916" y="1.3894" width="65.667" height="72.6667"/></clipPath><clipPath id="clip12"><path d="M2245.56 972.361 2215.77 942.005 2246.12 912.206 2275.92 942.562Z" fill-rule="nonzero" clip-rule="nonzero"/></clipPath><clipPath id="clip13"><path d="M2245.56 972.361 2215.77 942.005 2246.12 912.206 2275.92 942.562Z" fill-rule="evenodd" clip-rule="evenodd"/></clipPath><clipPath id="clip14"><path d="M2245.56 972.361 2215.77 942.005 2246.12 912.206 2275.92 942.562Z" fill-rule="evenodd" clip-rule="evenodd"/></clipPath></defs><g transform="translate(-1801 -898)"><g><text fill="#0D0D0D" fill-opacity="1" font-family="Arial,Arial_MSFontService,sans-serif" font-style="normal" font-variant="normal" font-weight="400" font-stretch="normal" font-size="21" text-anchor="start" direction="ltr" writing-mode="lr-tb" unicode-bidi="normal" text-decoration="none" transform="matrix(1 0 0 1 2266.64 963)">Table </text><text fill="#0D0D0D" fill-opacity="1" font-family="Arial,Arial_MSFontService,sans-serif" font-style="normal" font-variant="normal" font-weight="400" font-stretch="normal" font-size="21" text-anchor="start" direction="ltr" writing-mode="lr-tb" unicode-bidi="normal" text-decoration="none" transform="matrix(1 0 0 1 2258.62 988)">Lookup</text><text fill="#0D0D0D" fill-opacity="1" font-family="Arial,Arial_MSFontService,sans-serif" font-style="normal" font-variant="normal" font-weight="400" font-stretch="normal" font-size="23" text-anchor="start" direction="ltr" writing-mode="lr-tb" unicode-bidi="normal" text-decoration="none" transform="matrix(1 0 0 1 1970.99 969)">Traversal</text><text fill="#000000" fill-opacity="1" font-family="Arial,Arial_MSFontService,sans-serif" font-style="normal" font-variant="normal" font-weight="400" font-stretch="normal" font-size="28" text-anchor="start" direction="ltr" writing-mode="lr-tb" unicode-bidi="normal" text-decoration="none" transform="matrix(1 0 0 1 1913.4 1064)">Traversal caching using Megaflow</text><text fill="#000000" fill-opacity="1" font-family="Arial,Arial_MSFontService,sans-serif" font-style="normal" font-variant="normal" font-weight="400" font-stretch="normal" font-size="28" text-anchor="start" direction="ltr" writing-mode="lr-tb" unicode-bidi="normal" text-decoration="none" transform="matrix(1 0 0 1 1889.46 1266)">Sub</text><text fill="#000000" fill-opacity="1" font-family="Arial,Arial_MSFontService,sans-serif" font-style="normal" font-variant="normal" font-weight="400" font-stretch="normal" font-size="28" text-anchor="start" direction="ltr" writing-mode="lr-tb" unicode-bidi="normal" text-decoration="none" transform="matrix(1 0 0 1 1938.73 1266)">-</text><text fill="#000000" fill-opacity="1" font-family="Arial,Arial_MSFontService,sans-serif" font-style="normal" font-variant="normal" font-weight="400" font-stretch="normal" font-size="28" text-anchor="start" direction="ltr" writing-mode="lr-tb" unicode-bidi="normal" text-decoration="none" transform="matrix(1 0 0 1 1947.9 1266)">traversal </text><text fill="#000000" fill-opacity="1" font-family="Arial,Arial_MSFontService,sans-serif" font-style="normal" font-variant="normal" font-weight="400" font-stretch="normal" font-size="28" text-anchor="start" direction="ltr" writing-mode="lr-tb" unicode-bidi="normal" text-decoration="none" transform="matrix(1 0 0 1 2061.33 1266)">caching using </text><text fill="#000000" fill-opacity="1" font-family="Arial,Arial_MSFontService,sans-serif" font-style="normal" font-variant="normal" font-weight="400" font-stretch="normal" font-size="28" text-anchor="start" direction="ltr" writing-mode="lr-tb" unicode-bidi="normal" text-decoration="none" transform="matrix(1 0 0 1 2238.36 1266)">G</text><text fill="#000000" fill-opacity="1" font-family="Arial,Arial_MSFontService,sans-serif" font-style="normal" font-variant="normal" font-weight="400" font-stretch="normal" font-size="22" text-anchor="start" direction="ltr" writing-mode="lr-tb" unicode-bidi="normal" text-decoration="none" transform="matrix(1 0 0 1 2259.56 1266)">IGA</text><text fill="#000000" fill-opacity="1" font-family="Arial,Arial_MSFontService,sans-serif" font-style="normal" font-variant="normal" font-weight="400" font-stretch="normal" font-size="28" text-anchor="start" direction="ltr" writing-mode="lr-tb" unicode-bidi="normal" text-decoration="none" transform="matrix(1 0 0 1 2297.95 1266)">F</text><text fill="#000000" fill-opacity="1" font-family="Arial,Arial_MSFontService,sans-serif" font-style="normal" font-variant="normal" font-weight="400" font-stretch="normal" font-size="22" text-anchor="start" direction="ltr" writing-mode="lr-tb" unicode-bidi="normal" text-decoration="none" transform="matrix(1 0 0 1 2314.56 1266)">LOW</text><text fill="#0D0D0D" fill-opacity="1" font-family="Arial,Arial_MSFontService,sans-serif" font-style="normal" font-variant="normal" font-weight="400" font-stretch="normal" font-size="23" text-anchor="start" direction="ltr" writing-mode="lr-tb" unicode-bidi="normal" text-decoration="none" transform="matrix(1 0 0 1 1865.09 1190)">Sub</text><text fill="#0D0D0D" fill-opacity="1" font-family="Arial,Arial_MSFontService,sans-serif" font-style="normal" font-variant="normal" font-weight="400" font-stretch="normal" font-size="23" text-anchor="start" direction="ltr" writing-mode="lr-tb" unicode-bidi="normal" text-decoration="none" transform="matrix(1 0 0 1 1905.77 1190)">-</text><text fill="#0D0D0D" fill-opacity="1" font-family="Arial,Arial_MSFontService,sans-serif" font-style="normal" font-variant="normal" font-weight="400" font-stretch="normal" font-size="23" text-anchor="start" direction="ltr" writing-mode="lr-tb" unicode-bidi="normal" text-decoration="none" transform="matrix(1 0 0 1 1913.21 1190)">Traversal</text><path d="M1913 918C1913 909.164 1920.16 902 1929 902L2300 902C2308.84 902 2316 909.164 2316 918L2316 918C2316 926.837 2308.84 934 2300 934L1929 934C1920.16 934 1913 926.836 1913 918Z" fill="#BDD7EE" fill-rule="evenodd" fill-opacity="0.74902"/><path d="M1889.5 917.927 2341.44 917.927C2341.76 917.927 2342.02 918.184 2342.02 918.5 2342.02 918.817 2341.76 919.073 2341.44 919.073L1889.5 919.073C1889.18 919.073 1888.93 918.816 1888.93 918.5 1888.93 918.184 1889.18 917.927 1889.5 917.927ZM2341.44 918.5 2332.28 909.334 2350.61 918.5 2332.28 927.667Z" fill="#000000" fill-rule="nonzero" fill-opacity="1"/><g clip-path="url(#clip4)"><g clip-path="url(#clip5)" filter="url(#fx0)" transform="translate(2098 971)"><g><g><rect x="20.2229" y="20.2226" width="28.9999" height="35.0001" stroke="#000000" stroke-width="1" stroke-linecap="butt" stroke-linejoin="miter" stroke-miterlimit="8" stroke-opacity="1" fill="#C5E0B4" fill-opacity="1"/></g></g></g></g><rect x="2108.5" y="981.5" width="28.9998" height="35.0001" stroke="#000000" stroke-width="1.14583" stroke-linecap="butt" stroke-linejoin="miter" stroke-miterlimit="8" stroke-opacity="1" fill="#C5E0B4" fill-opacity="1"/><path d="M2124.07 939.5 2124.07 942.937 2122.93 942.937 2122.93 939.5ZM2124.07 944.083 2124.07 947.521 2122.93 947.521 2122.93 944.083ZM2124.07 948.667 2124.07 952.104 2122.93 952.104 2122.93 948.667ZM2124.07 953.25 2124.07 956.687 2122.93 956.687 2122.93 953.25ZM2124.07 957.833 2124.07 961.271 2122.93 961.271 2122.93 957.833ZM2124.07 962.417 2124.07 965.854 2122.93 965.854 2122.93 962.417ZM2124.07 967 2124.07 970.437 2122.93 970.437 2122.93 967ZM2124.07 971.583 2124.07 972.45 2122.93 972.45 2122.93 971.583ZM2135.44 954.42 2123.5 973.531 2111.56 954.42C2111.39 954.152 2111.47 953.799 2111.74 953.631 2112.01 953.463 2112.36 953.545 2112.53 953.813L2123.99 972.146 2123.01 972.146 2134.47 953.813C2134.64 953.545 2134.99 953.463 2135.26 953.631 2135.53 953.798 2135.61 954.152 2135.44 954.42Z" fill="#000000" fill-rule="nonzero" fill-opacity="1"/><g><g><g><path d="M21.4997 11.9999C21.4997 17.2465 17.2465 21.4997 11.9999 21.4997 6.75321 21.4997 2.49997 17.2465 2.49997 11.9999 2.49997 6.75321 6.75321 2.49997 11.9999 2.49997 17.2465 2.49997 21.4997 6.75321 21.4997 11.9999Z" fill="#3B3838" fill-rule="nonzero" fill-opacity="1" transform="matrix(1.00002 0 0 1 1926 906)"/></g></g></g><g><g><g><path d="M21.4997 11.9999C21.4997 17.2465 17.2465 21.4997 11.9999 21.4997 6.75321 21.4997 2.49997 17.2465 2.49997 11.9999 2.49997 6.75321 6.75321 2.49997 11.9999 2.49997 17.2465 2.49997 21.4997 6.75321 21.4997 11.9999Z" fill="#3B3838" fill-rule="nonzero" fill-opacity="1" transform="matrix(1.00002 0 0 1 1997 906)"/></g></g></g><g><g><g><path d="M21.5001 12C21.5001 17.2468 17.2468 21.5001 12 21.5001 6.75331 21.5001 2.50001 17.2468 2.50001 12 2.50001 6.75331 6.75331 2.50001 12 2.50001 17.2468 2.50001 21.5001 6.75331 21.5001 12Z" fill="#3B3838" fill-rule="nonzero" fill-opacity="1" transform="matrix(1 0 0 1.04165 2068 906)"/></g></g></g><g><g><g><path d="M21.4997 11.9999C21.4997 17.2465 17.2465 21.4997 11.9999 21.4997 6.75321 21.4997 2.49997 17.2465 2.49997 11.9999 2.49997 6.75321 6.75321 2.49997 11.9999 2.49997 17.2465 2.49997 21.4997 6.75321 21.4997 11.9999Z" fill="#3B3838" fill-rule="nonzero" fill-opacity="1" transform="matrix(1.00002 0 0 1 2280 906)"/></g></g></g><g><g><g><path d="M21.4997 11.9999C21.4997 17.2465 17.2465 21.4997 11.9999 21.4997 6.75321 21.4997 2.49997 17.2465 2.49997 11.9999 2.49997 6.75321 6.75321 2.49997 11.9999 2.49997 17.2465 2.49997 21.4997 6.75321 21.4997 11.9999Z" fill="#3B3838" fill-rule="nonzero" fill-opacity="1" transform="matrix(1.04167 0 0 1 2138 906)"/></g></g></g><g><g><g><path d="M21.4997 11.9999C21.4997 17.2465 17.2465 21.4997 11.9999 21.4997 6.75321 21.4997 2.49997 17.2465 2.49997 11.9999 2.49997 6.75321 6.75321 2.49997 11.9999 2.49997 17.2465 2.49997 21.4997 6.75321 21.4997 11.9999Z" fill="#3B3838" fill-rule="nonzero" fill-opacity="1" transform="matrix(1.00002 0 0 1 2209 906)"/></g></g></g><path d="M2271 1121C2271 1112.16 2278.16 1105 2287 1105L2306 1105C2314.84 1105 2322 1112.16 2322 1121 2322 1129.84 2314.84 1137 2306 1137L2287 1137C2278.16 1137 2271 1129.84 2271 1121Z" fill="#F8CBAD" fill-rule="evenodd" fill-opacity="0.74902"/><path d="M2058 1121C2058 1112.16 2065.16 1105 2074 1105L2234 1105C2242.84 1105 2250 1112.16 2250 1121 2250 1129.84 2242.84 1137 2234 1137L2074 1137C2065.16 1137 2058 1129.84 2058 1121Z" fill="#F8CBAD" fill-rule="evenodd" fill-opacity="0.74902"/><path d="M1917 1121C1917 1112.16 1924.16 1105 1933 1105L2022 1105C2030.84 1105 2038 1112.16 2038 1121 2038 1129.84 2030.84 1137 2022 1137L1933 1137C1924.16 1137 1917 1129.84 1917 1121Z" fill="#F8CBAD" fill-rule="evenodd" fill-opacity="0.74902"/><path d="M1893.5 1120.93 2345.44 1120.93C2345.76 1120.93 2346.02 1121.18 2346.02 1121.5 2346.02 1121.82 2345.76 1122.07 2345.44 1122.07L1893.5 1122.07C1893.18 1122.07 1892.93 1121.82 1892.93 1121.5 1892.93 1121.18 1893.18 1120.93 1893.5 1120.93ZM2345.44 1121.5 2336.28 1112.33 2354.61 1121.5 2336.28 1130.67Z" fill="#000000" fill-rule="nonzero" fill-opacity="1"/><g clip-path="url(#clip6)"><g clip-path="url(#clip7)" filter="url(#fx1)" transform="translate(2032 1174)"><g><g><rect x="20.2229" y="20.2228" width="27.9998" height="35.0001" stroke="#000000" stroke-width="1" stroke-linecap="butt" stroke-linejoin="miter" stroke-miterlimit="8" stroke-opacity="1" fill="#C5E0B4" fill-opacity="1"/></g></g></g></g><rect x="2042.5" y="1184.5" width="27.9999" height="35.0001" stroke="#000000" stroke-width="1.14583" stroke-linecap="butt" stroke-linejoin="miter" stroke-miterlimit="8" stroke-opacity="1" fill="#C5E0B4" fill-opacity="1"/><g clip-path="url(#clip8)"><g clip-path="url(#clip9)" filter="url(#fx2)" transform="translate(2094 1174)"><g><g><rect x="20.2227" y="20.2228" width="29.0002" height="35.0001" stroke="#000000" stroke-width="1" stroke-linecap="butt" stroke-linejoin="miter" stroke-miterlimit="8" stroke-opacity="1" fill="#C5E0B4" fill-opacity="1"/></g></g></g></g><rect x="2104.5" y="1184.5" width="29.0002" height="35.0001" stroke="#000000" stroke-width="1.14583" stroke-linecap="butt" stroke-linejoin="miter" stroke-miterlimit="8" stroke-opacity="1" fill="#C5E0B4" fill-opacity="1"/><g clip-path="url(#clip10)"><g clip-path="url(#clip11)" filter="url(#fx3)" transform="translate(2157 1173)"><g><g><rect x="20.2227" y="20.2228" width="28.0002" height="35.0001" stroke="#000000" stroke-width="1" stroke-linecap="butt" stroke-linejoin="miter" stroke-miterlimit="8" stroke-opacity="1" fill="#C5E0B4" fill-opacity="1"/></g></g></g></g><rect x="2167.5" y="1183.5" width="28.0002" height="35.0001" stroke="#000000" stroke-width="1.14583" stroke-linecap="butt" stroke-linejoin="miter" stroke-miterlimit="8" stroke-opacity="1" fill="#C5E0B4" fill-opacity="1"/><path d="M0-0.572917 3.4375-0.572917 3.4375 0.572917 0 0.572917ZM4.58333-0.572917 8.02083-0.572917 8.02083 0.572917 4.58333 0.572917ZM9.16667-0.572917 12.6042-0.572917 12.6042 0.572917 9.16667 0.572917ZM13.75-0.572917 17.1875-0.572917 17.1875 0.572917 13.75 0.572917ZM18.3333-0.572917 21.7708-0.572917 21.7708 0.572917 18.3333 0.572917ZM22.9167-0.572917 23.7574-0.572917 23.7574 3.16972 22.6115 3.16972 22.6115 0 23.1844 0.572917 22.9167 0.572917ZM23.7574 4.31555 23.7574 7.75305 22.6115 7.75305 22.6115 4.31555ZM23.7574 8.89888 23.7574 12.3364 22.6115 12.3364 22.6115 8.89888ZM23.7574 13.4822 23.7574 16.9197 22.6115 16.9197 22.6115 13.4822ZM23.7574 18.0656 23.7574 21.5031 22.6115 21.5031 22.6115 18.0656ZM23.7574 22.6489 23.7574 26.0864 22.6115 26.0864 22.6115 22.6489ZM23.7574 27.2322 23.7574 30.6697 22.6115 30.6697 22.6115 27.2322ZM23.7574 31.8156 23.7574 35.2531 22.6115 35.2531 22.6115 31.8156ZM23.7574 36.3989 23.7574 39.8364 22.6115 39.8364 22.6115 36.3989ZM23.7574 40.9822 23.7574 44.4197 22.6115 44.4197 22.6115 40.9822ZM23.7574 45.5656 23.7574 49.0031 22.6115 49.0031 22.6115 45.5656ZM23.7574 50.1489 23.7574 53.5864 22.6115 53.5864 22.6115 50.1489ZM23.7574 54.7322 23.7574 58.1697 22.6115 58.1697 22.6115 54.7322ZM23.7574 59.3156 23.7574 62.7531 22.6115 62.7531 22.6115 59.3156ZM23.7574 63.8989 23.7574 67.3364 22.6115 67.3364 22.6115 63.8989ZM23.7574 68.4822 23.7574 71.9197 22.6115 71.9197 22.6115 68.4822ZM23.7574 73.0656 23.7574 76.5031 22.6115 76.5031 22.6115 73.0656ZM23.7574 77.6489 23.7574 78.6619 23.1844 78.089 25.6089 78.089 25.6089 79.2348 22.6115 79.2348 22.6115 77.6489ZM26.7548 78.089 30.1923 78.089 30.1923 79.2348 26.7548 79.2348ZM31.3381 78.089 34.7756 78.089 34.7756 79.2348 31.3381 79.2348ZM35.9214 78.089 39.3589 78.089 39.3589 79.2348 35.9214 79.2348ZM40.5048 78.089 43.9423 78.089 43.9423 79.2348 40.5048 79.2348ZM45.0881 78.089 45.2918 78.089 45.2918 79.2348 45.0881 79.2348ZM27.2621 66.7177 46.3728 78.6619 27.2621 90.6061C26.9938 90.7738 26.6403 90.6922 26.4726 90.4239 26.305 90.1556 26.3865 89.8021 26.6548 89.6344L44.9882 78.1761 44.9882 79.1477 26.6548 67.6894C26.3865 67.5217 26.305 67.1683 26.4726 66.8999 26.6403 66.6316 26.9938 66.55 27.2621 66.7177Z" fill="#000000" fill-rule="nonzero" fill-opacity="1" transform="matrix(1.83697e-16 1 1 -1.83697e-16 1977.5 1137.5)"/><path d="M2155.58 1137.5 2155.58 1140.94 2154.43 1140.94 2154.43 1137.5ZM2155.58 1142.08 2155.58 1145.52 2154.43 1145.52 2154.43 1142.08ZM2155.58 1146.67 2155.58 1150.1 2154.43 1150.1 2154.43 1146.67ZM2155.58 1151.25 2155.58 1154.69 2154.43 1154.69 2154.43 1151.25ZM2155.58 1155.83 2155.58 1159.27 2154.43 1159.27 2154.43 1155.83ZM2155.58 1160.42 2155.58 1161.41 2151.99 1161.41 2151.99 1160.27 2155.01 1160.27 2154.43 1160.84 2154.43 1160.42ZM2150.84 1161.41 2147.41 1161.41 2147.41 1160.27 2150.84 1160.27ZM2146.26 1161.41 2142.82 1161.41 2142.82 1160.27 2146.26 1160.27ZM2141.68 1161.41 2138.24 1161.41 2138.24 1160.27 2141.68 1160.27ZM2137.09 1161.41 2133.66 1161.41 2133.66 1160.27 2137.09 1160.27ZM2132.51 1161.41 2129.07 1161.41 2129.07 1160.27 2132.51 1160.27ZM2127.93 1161.41 2124.49 1161.41 2124.49 1160.27 2127.93 1160.27ZM2123.34 1161.41 2119.91 1161.41 2119.91 1160.27 2123.34 1160.27ZM2120.07 1161.58 2120.07 1165.02 2118.93 1165.02 2118.93 1161.58ZM2120.07 1166.16 2120.07 1169.6 2118.93 1169.6 2118.93 1166.16ZM2120.07 1170.74 2120.07 1174.18 2118.93 1174.18 2118.93 1170.74ZM2120.07 1175.33 2120.07 1178.77 2118.93 1178.77 2118.93 1175.33ZM2120.07 1179.91 2120.07 1183.1 2118.93 1183.1 2118.93 1179.91ZM2131.44 1165.07 2119.5 1184.18 2107.56 1165.07C2107.39 1164.8 2107.47 1164.45 2107.74 1164.28 2108.01 1164.11 2108.36 1164.19 2108.53 1164.46L2119.99 1182.8 2119.01 1182.8 2130.47 1164.46C2130.64 1164.19 2130.99 1164.11 2131.26 1164.28 2131.53 1164.45 2131.61 1164.8 2131.44 1165.07Z" fill="#000000" fill-rule="nonzero" fill-opacity="1"/><path d="M2297.47 1137.5 2297.47 1140.94 2296.33 1140.94 2296.33 1137.5ZM2297.47 1142.08 2297.47 1145.52 2296.33 1145.52 2296.33 1142.08ZM2297.47 1146.67 2297.47 1150.1 2296.33 1150.1 2296.33 1146.67ZM2297.47 1151.25 2297.47 1154.69 2296.33 1154.69 2296.33 1151.25ZM2297.47 1155.83 2297.47 1159.27 2296.33 1159.27 2296.33 1155.83ZM2296.84 1160.93 2293.4 1160.93 2293.4 1159.78 2296.84 1159.78ZM2292.25 1160.93 2288.82 1160.93 2288.82 1159.78 2292.25 1159.78ZM2287.67 1160.93 2284.23 1160.93 2284.23 1159.78 2287.67 1159.78ZM2283.09 1160.93 2279.65 1160.93 2279.65 1159.78 2283.09 1159.78ZM2278.5 1160.93 2275.07 1160.93 2275.07 1159.78 2278.5 1159.78ZM2273.92 1160.93 2270.48 1160.93 2270.48 1159.78 2273.92 1159.78ZM2269.34 1160.93 2265.9 1160.93 2265.9 1159.78 2269.34 1159.78ZM2264.75 1160.93 2261.32 1160.93 2261.32 1159.78 2264.75 1159.78ZM2260.17 1160.93 2256.73 1160.93 2256.73 1159.78 2260.17 1159.78ZM2255.59 1160.93 2252.15 1160.93 2252.15 1159.78 2255.59 1159.78ZM2251 1160.93 2247.57 1160.93 2247.57 1159.78 2251 1159.78ZM2246.42 1160.93 2242.98 1160.93 2242.98 1159.78 2246.42 1159.78ZM2241.84 1160.93 2238.4 1160.93 2238.4 1159.78 2241.84 1159.78ZM2237.25 1160.93 2233.82 1160.93 2233.82 1159.78 2237.25 1159.78ZM2232.67 1160.93 2229.23 1160.93 2229.23 1159.78 2232.67 1159.78ZM2228.09 1160.93 2224.65 1160.93 2224.65 1159.78 2228.09 1159.78ZM2223.5 1160.93 2220.07 1160.93 2220.07 1159.78 2223.5 1159.78ZM2218.92 1160.93 2215.48 1160.93 2215.48 1159.78 2218.92 1159.78ZM2214.34 1160.93 2210.9 1160.93 2210.9 1159.78 2214.34 1159.78ZM2209.75 1160.93 2206.32 1160.93 2206.32 1159.78 2209.75 1159.78ZM2205.17 1160.93 2201.73 1160.93 2201.73 1159.78 2205.17 1159.78ZM2200.59 1160.93 2197.15 1160.93 2197.15 1159.78 2200.59 1159.78ZM2196 1160.93 2192.57 1160.93 2192.57 1159.78 2196 1159.78ZM2191.42 1160.93 2187.98 1160.93 2187.98 1159.78 2191.42 1159.78ZM2186.84 1160.93 2183.4 1160.93 2183.4 1159.78 2186.84 1159.78ZM2182.25 1160.93 2181.5 1160.93 2182.07 1160.35 2182.07 1163.04 2180.93 1163.04 2180.93 1159.78 2182.25 1159.78ZM2182.07 1164.18 2182.07 1167.62 2180.93 1167.62 2180.93 1164.18ZM2182.07 1168.77 2182.07 1172.2 2180.93 1172.2 2180.93 1168.77ZM2182.07 1173.35 2182.07 1176.79 2180.93 1176.79 2180.93 1173.35ZM2182.07 1177.93 2182.07 1181.37 2180.93 1181.37 2180.93 1177.93ZM2193.44 1164.1 2181.5 1183.21 2169.56 1164.1C2169.39 1163.83 2169.47 1163.48 2169.74 1163.31 2170.01 1163.14 2170.36 1163.23 2170.53 1163.49L2181.99 1181.83 2181.01 1181.83 2192.47 1163.49C2192.64 1163.23 2192.99 1163.14 2193.26 1163.31 2193.53 1163.48 2193.61 1163.83 2193.44 1164.1Z" fill="#000000" fill-rule="nonzero" fill-opacity="1"/><g><g><g><path d="M21.4997 11.9999C21.4997 17.2465 17.2465 21.4997 11.9999 21.4997 6.75321 21.4997 2.49997 17.2465 2.49997 11.9999 2.49997 6.75321 6.75321 2.49997 11.9999 2.49997 17.2465 2.49997 21.4997 6.75321 21.4997 11.9999Z" fill="#3B3838" fill-rule="nonzero" fill-opacity="1" transform="matrix(1 0 0 1.04168 1930 1109)"/></g></g></g><g><g><g><path d="M21.5001 12C21.5001 17.2468 17.2468 21.5001 12 21.5001 6.75331 21.5001 2.50001 17.2468 2.50001 12 2.50001 6.75331 6.75331 2.50001 12 2.50001 17.2468 2.50001 21.5001 6.75331 21.5001 12Z" fill="#3B3838" fill-rule="nonzero" fill-opacity="1" transform="matrix(1 0 0 1.04167 2001 1109)"/></g></g></g><g><g><g><path d="M21.4997 11.9999C21.4997 17.2465 17.2465 21.4997 11.9999 21.4997 6.75321 21.4997 2.49997 17.2465 2.49997 11.9999 2.49997 6.75321 6.75321 2.49997 11.9999 2.49997 17.2465 2.49997 21.4997 6.75321 21.4997 11.9999Z" fill="#3B3838" fill-rule="nonzero" fill-opacity="1" transform="matrix(1 0 0 1.00002 2072 1110)"/></g></g></g><g><g><g><path d="M2305.5 1121C2305.5 1126.25 2301.25 1130.5 2296 1130.5 2290.75 1130.5 2286.5 1126.25 2286.5 1121 2286.5 1115.75 2290.75 1111.5 2296 1111.5 2301.25 1111.5 2305.5 1115.75 2305.5 1121Z" fill="#3B3838" fill-rule="nonzero" fill-opacity="1"/></g></g></g><g><g><g><path d="M21.5001 12C21.5001 17.2468 17.2468 21.5001 12 21.5001 6.75331 21.5001 2.50001 17.2468 2.50001 12 2.50001 6.75331 6.75331 2.50001 12 2.50001 17.2468 2.50001 21.5001 6.75331 21.5001 12Z" fill="#3B3838" fill-rule="nonzero" fill-opacity="1" transform="matrix(1.04167 0 0 1 2142 1109)"/></g></g></g><g><g><g><path d="M2234.5 1121C2234.5 1126.25 2230.25 1130.5 2225 1130.5 2219.75 1130.5 2215.5 1126.25 2215.5 1121 2215.5 1115.75 2219.75 1111.5 2225 1111.5 2230.25 1111.5 2234.5 1115.75 2234.5 1121Z" fill="#3B3838" fill-rule="nonzero" fill-opacity="1"/></g></g></g><g clip-path="url(#clip12)"><g clip-path="url(#clip13)"><g clip-path="url(#clip14)"><path d="M2232.59 938.714C2232.59 938.959 2232.79 939.155 2233.03 939.153 2233.27 939.151 2233.47 938.961 2233.47 938.722L2233.55 930.403C2233.55 930.401 2233.55 930.399 2233.55 930.399 2233.56 930.399 2233.56 930.399 2233.56 930.4L2258.25 955.559C2258.42 955.733 2258.71 955.736 2258.88 955.564 2259.05 955.393 2259.06 955.112 2258.89 954.938L2234.19 929.779C2234.19 929.778 2234.19 929.775 2234.19 929.773 2234.19 929.772 2234.19 929.772 2234.19 929.772L2242.51 929.849C2242.76 929.856 2242.96 929.663 2242.97 929.418 2242.97 929.173 2242.78 928.97 2242.54 928.963 2242.53 928.963 2242.53 928.963 2242.52 928.963L2233.12 928.876C2232.88 928.874 2232.68 929.07 2232.67 929.315Z" fill="#3B3838" fill-rule="nonzero" fill-opacity="1"/></g></g></g></g></g></svg>